<?xml version="1.0" standalone="no"?>
<!DOCTYPE svg PUBLIC "-//W3C//DTD SVG 20010904//EN"
 "http://www.w3.org/TR/2001/REC-SVG-20010904/DTD/svg10.dtd">
<svg version="1.0" xmlns="http://www.w3.org/2000/svg"
 width="485.000000pt" height="485.000000pt" viewBox="0 0 485.000000 485.000000"
 preserveAspectRatio="xMidYMid meet">
<metadata>
Created by potrace 1.11, written by Peter Selinger 2001-2013
</metadata>
<g transform="translate(0.000000,485.000000) scale(0.100000,-0.100000)"
fill="#000000" stroke="none">
<path d="M2390 4729 c-14 -32 -150 -400 -154 -419 -3 -8 -19 -53 -36 -100 -18
-47 -36 -96 -41 -110 -4 -14 -19 -54 -32 -90 -67 -178 -97 -264 -93 -268 6 -5
737 -4 743 1 2 3 -11 45 -30 93 -19 49 -49 130 -67 179 -18 50 -55 151 -82
225 -27 74 -79 216 -115 315 -36 99 -69 184 -74 189 -4 5 -13 -1 -19 -15z"/>
<path d="M727 4073 c4 -10 32 -67 62 -128 30 -60 55 -112 55 -115 1 -3 51
-106 112 -230 61 -124 140 -285 175 -357 35 -73 67 -133 71 -133 10 0 528 502
528 512 0 3 -26 16 -57 29 -32 13 -97 42 -146 66 -48 24 -89 43 -91 43 -4 0
-98 43 -241 110 -111 52 -226 105 -400 185 -33 15 -63 29 -67 32 -4 2 -5 -4
-1 -14z"/>
<path d="M4020 4058 c-36 -17 -87 -41 -115 -53 -155 -72 -272 -126 -434 -201
-51 -24 -95 -44 -96 -44 -2 0 -65 -29 -140 -65 -76 -36 -141 -65 -146 -65 -20
0 -7 -19 46 -68 30 -28 55 -56 55 -62 0 -5 4 -10 10 -10 5 0 46 -36 92 -81 46
-44 133 -130 195 -190 62 -60 116 -109 120 -109 4 0 17 19 28 43 52 111 165
340 174 350 5 7 10 17 10 22 1 6 26 61 56 123 30 62 55 115 55 118 0 3 9 18
19 32 10 15 19 30 20 34 5 22 85 184 95 190 6 4 7 8 2 8 -5 0 -4 6 1 13 9 11
25 48 20 46 -1 0 -31 -14 -67 -31z"/>
<path d="M2357 3594 c-1 -1 -31 -4 -67 -8 -91 -9 -107 -12 -180 -30 -142 -36
-285 -102 -403 -186 -75 -54 -221 -198 -262 -260 -16 -25 -33 -46 -37 -48 -5
-2 -8 -7 -8 -11 0 -5 -17 -40 -38 -78 -53 -95 -104 -245 -119 -343 -10 -65 -9
-306 1 -370 24 -154 118 -364 222 -499 27 -35 194 -204 194 -197 0 4 10 -3 22
-14 26 -24 173 -118 173 -110 0 2 22 -9 50 -23 27 -15 53 -27 57 -27 4 0 19
-5 35 -12 15 -6 33 -12 38 -13 6 -2 30 -8 55 -15 25 -7 53 -14 62 -16 10 -2
28 -6 41 -9 64 -14 290 -22 342 -11 11 2 40 7 65 10 25 3 60 10 78 15 17 5 32
8 32 6 0 -2 16 3 35 11 19 8 38 15 42 15 5 1 18 5 31 10 13 5 25 9 27 9 7 0
160 74 170 82 6 4 35 25 65 45 30 20 58 41 62 47 4 6 8 8 8 4 0 -22 188 182
244 265 61 91 142 283 161 381 2 11 4 21 5 21 1 0 4 23 7 50 13 102 6 350 -10
395 -4 8 -11 35 -17 60 -29 117 -116 300 -175 366 -5 7 -19 25 -30 40 -31 45
-155 166 -215 211 -171 128 -392 213 -598 229 -87 7 -162 11 -165 8z"/>
<path d="M950 2772 c-69 -24 -132 -45 -140 -47 -8 -2 -16 -4 -17 -5 -2 -2 -6
-3 -10 -5 -5 -1 -15 -4 -23 -8 -8 -3 -71 -25 -140 -48 -69 -24 -127 -46 -128
-51 -2 -4 -7 -6 -11 -4 -4 3 -90 -24 -192 -60 -101 -36 -188 -66 -194 -67 -41
-12 -55 -20 -55 -33 0 -8 4 -13 9 -9 5 3 22 0 38 -6 15 -7 42 -17 58 -24 17
-7 88 -32 160 -55 72 -24 141 -47 155 -53 14 -6 28 -11 33 -12 4 -2 9 -4 12
-5 3 -1 8 -3 13 -4 14 -3 117 -38 137 -46 46 -18 121 -44 139 -47 11 -2 24 -7
30 -12 11 -8 50 -20 91 -28 11 -2 24 -8 29 -13 6 -6 16 -10 22 -10 7 0 25 -5
41 -12 15 -6 30 -12 33 -12 3 -1 11 -5 18 -9 7 -5 14 -3 17 5 3 7 4 173 3 368
l-3 355 -125 -43z"/>
<path d="M3730 2455 c0 -335 4 -399 25 -365 3 5 17 10 31 10 13 0 24 4 24 9 0
9 63 26 88 24 6 0 12 3 12 8 0 8 71 31 98 32 6 0 12 3 12 6 0 4 21 13 48 20
26 8 52 18 58 23 7 5 16 8 20 7 5 -1 23 3 39 10 17 7 37 14 45 16 8 3 44 15
80 29 36 13 67 24 70 24 3 1 12 3 20 6 142 52 214 75 221 70 5 -3 9 -1 9 3 0
5 32 19 71 32 42 13 69 27 66 34 -2 7 -8 12 -13 13 -5 0 -16 3 -24 7 -24 9
-193 67 -210 72 -8 2 -67 22 -130 44 -63 23 -117 41 -120 42 -3 1 -16 6 -30
11 -14 6 -47 17 -75 25 -27 8 -56 20 -62 25 -7 6 -13 8 -13 4 0 -3 -22 3 -50
14 -27 11 -50 16 -50 12 0 -4 -4 -1 -8 5 -4 7 -19 15 -32 17 -14 2 -26 5 -27
7 -2 1 -7 3 -13 4 -5 1 -12 4 -15 5 -3 1 -8 3 -12 5 -5 1 -15 4 -23 7 -20 8
-43 15 -53 17 -4 0 -23 7 -42 15 l-34 15 -1 -364z"/>
<path d="M1127 1647 c-215 -439 -319 -651 -360 -735 l-46 -92 26 5 c15 2 29 9
33 15 4 7 9 11 11 10 6 -2 47 15 134 56 44 20 82 38 85 39 3 0 32 14 65 29 69
32 96 43 109 44 5 0 12 4 15 9 8 11 128 67 137 64 4 -2 10 1 13 6 3 5 51 29
106 53 55 24 102 47 105 50 3 3 10 6 15 7 6 1 43 17 84 37 l75 36 -145 140
c-79 78 -199 195 -266 261 l-122 119 -74 -153z"/>
<path d="M3540 1735 c-188 -188 -450 -441 -454 -438 -2 2 -7 -4 -10 -14 -4 -9
-4 -14 0 -11 3 4 21 0 38 -9 17 -10 33 -18 36 -18 3 -1 37 -17 75 -35 39 -19
72 -34 75 -35 6 -1 57 -25 210 -97 98 -46 148 -69 160 -73 3 -1 32 -14 65 -30
33 -16 63 -28 68 -27 4 1 7 -2 7 -7 0 -5 14 -12 30 -16 17 -4 30 -11 30 -17 0
-6 3 -9 6 -5 3 3 27 -6 54 -19 26 -13 52 -24 58 -24 5 0 15 -6 22 -14 6 -8 18
-12 26 -9 8 3 14 0 14 -6 0 -6 9 -11 19 -11 17 0 15 8 -19 75 -21 41 -35 77
-32 80 3 3 0 5 -6 5 -6 0 -13 14 -17 30 -4 17 -10 30 -14 30 -5 0 -25 38 -35
70 -1 3 -60 122 -130 265 -70 143 -146 297 -168 343 -22 45 -41 82 -42 82 0 0
-30 -30 -66 -65z"/>
<path d="M2068 1162 c-21 -2 -38 -5 -38 -7 0 -4 13 -41 45 -125 7 -19 23 -61
34 -92 12 -32 30 -82 40 -110 11 -29 38 -102 60 -163 53 -148 138 -378 161
-440 10 -27 21 -59 25 -70 6 -18 8 -16 22 15 9 19 17 40 19 45 1 6 14 42 29
80 15 39 30 81 34 95 10 30 155 428 178 485 27 69 94 259 98 275 2 13 -40 15
-334 15 -185 0 -353 -1 -373 -3z"/>
</g>
</svg>
